<svg xmlns="http://www.w3.org/2000/svg" width="667" height="332" viewBox="16 209 667 332" version="1.1">
	<path d="M 273.500 212.641 C 267.450 213.329, 259.350 214.615, 255.500 215.498 C 225.660 222.339, 223.632 222.942, 195 233.488 C 176.070 240.460, 123.733 257.754, 113.109 260.547 C 103.568 263.056, 98.680 264.593, 91.500 267.343 C 89.300 268.186, 80.847 270.979, 72.716 273.549 C 59.803 277.630, 57.082 278.171, 51.216 277.818 C 45.370 277.467, 43.623 276.856, 37.729 273.104 C 30.402 268.440, 27.766 268.234, 23.975 272.025 C 21.414 274.586, 21.429 280.176, 24.024 289.932 C 26.450 299.056, 26.635 311.236, 24.427 316.520 C 23.124 319.640, 23.081 320.506, 24.177 321.588 C 25.267 322.663, 26.482 322.230, 31.082 319.127 C 49.809 306.494, 84.513 297, 111.963 297 C 118.983 297, 127.151 296.540, 130.114 295.978 C 138.737 294.342, 174.124 294.723, 176.970 296.481 C 178.700 297.550, 176.852 299.921, 172.945 301.645 C 169.005 303.383, 167.272 305.672, 168.765 307.165 C 169.223 307.623, 174.525 306.322, 180.548 304.275 C 191.338 300.608, 191.721 300.554, 206.500 300.631 C 218.895 300.695, 222.889 301.102, 229.500 302.972 C 233.900 304.217, 238.641 305.819, 240.035 306.532 C 241.429 307.245, 244.312 308.155, 246.442 308.555 C 248.571 308.955, 251.470 309.881, 252.883 310.614 C 256.266 312.369, 258.463 310.549, 255.500 308.446 C 254.400 307.666, 252.527 306.190, 251.338 305.168 C 246.516 301.020, 222.015 290.043, 208.668 286.050 C 187.973 279.859, 177.287 277.886, 161.500 277.337 C 145.785 276.792, 144.820 276.632, 145.560 274.705 C 146.544 272.141, 191.638 251.582, 203 248.518 C 204.375 248.147, 210.675 246.264, 217 244.333 C 223.325 242.403, 231.875 239.799, 236 238.546 C 256.410 232.349, 271.529 230.585, 298.542 231.248 C 320.381 231.785, 318.938 231.506, 348 240.789 C 370.679 248.033, 390.204 258.683, 416 277.878 C 420.125 280.947, 424.961 284.466, 426.747 285.697 C 428.532 286.928, 431.299 288.901, 432.895 290.080 C 436.318 292.612, 437.391 292.650, 455 290.867 C 475.633 288.778, 530.258 289.012, 545 291.252 C 551.325 292.214, 557.815 293.113, 559.423 293.250 C 563.538 293.602, 563.717 295.583, 559.814 297.566 C 553.280 300.885, 547 305.361, 547 306.700 C 547 309.033, 549.614 309.215, 554.653 307.231 C 570.976 300.807, 572.596 300.497, 589.500 300.560 C 607.619 300.628, 613.756 301.880, 631.375 309.105 C 639.831 312.573, 641.970 313.082, 645.723 312.519 C 648.939 312.037, 650.783 312.283, 652.532 313.429 C 655.212 315.185, 659 315.528, 659 314.013 C 659 313.471, 657.538 312.355, 655.750 311.534 C 653.962 310.712, 651.825 309.609, 651 309.082 C 649.523 308.138, 645.349 306.271, 635.500 302.146 C 625.499 297.957, 612.209 293.171, 599 289.001 C 591.575 286.656, 583.250 283.925, 580.500 282.931 C 574.765 280.858, 560.726 277.609, 550.500 275.987 C 513.784 270.166, 501.218 269.179, 467 269.432 C 448.719 269.567, 443.433 269.927, 438.809 271.353 C 433.356 273.034, 432.972 273.032, 429.675 271.304 C 427.782 270.312, 424.043 267.597, 421.366 265.272 C 418.690 262.946, 413.966 259.121, 410.868 256.772 C 407.770 254.422, 401.980 249.800, 398 246.500 C 375.545 227.880, 355.302 217.506, 334.500 213.957 C 316.356 210.861, 293.473 210.367, 273.500 212.641 M 576.526 351.443 C 571.287 357.736, 567 363.787, 567 364.889 C 567 366.208, 568.873 368.136, 572.478 370.529 L 577.957 374.166 589.728 363.908 C 596.203 358.266, 601.650 353.032, 601.833 352.277 C 602.015 351.522, 601.584 350.203, 600.873 349.347 C 599.175 347.301, 588.402 340, 587.081 340 C 586.515 340, 581.766 345.149, 576.526 351.443 M 54 345.623 C 40.387 349.217, 30.429 359.167, 26.878 372.724 C 24.720 380.965, 24.855 384.977, 27.615 394.653 C 28.711 398.495, 30.284 400.921, 33.793 404.186 C 38.546 408.609, 40.658 409.588, 55.927 414.455 C 66.292 417.758, 71.612 420.406, 72.967 422.938 C 74.932 426.609, 74.183 431.764, 71.199 435.104 C 68.681 437.921, 67.684 438.290, 61.340 438.744 C 53.219 439.325, 49.678 438.382, 41.517 433.468 C 38.349 431.561, 34.999 430, 34.072 430 C 32.953 430, 30.639 433.335, 27.193 439.913 C 24.337 445.366, 22 450.240, 22 450.745 C 22 452.079, 30.714 457.373, 36.300 459.433 C 53.077 465.621, 68.828 465.546, 84.306 459.205 C 86.399 458.347, 90.807 455.138, 94.101 452.073 C 101.682 445.019, 104.946 436.832, 104.979 424.788 C 105.029 406.514, 97.830 398.834, 73.293 390.983 C 60.747 386.969, 56.600 383.892, 56.600 378.598 C 56.600 369.344, 72.348 366.108, 83.586 373.053 C 85.318 374.124, 87.431 375, 88.281 375 C 89.194 375, 91.336 372.031, 93.514 367.750 C 95.542 363.762, 97.944 359.235, 98.851 357.689 C 100.434 354.992, 100.409 354.804, 98.233 353.015 C 91.025 347.091, 64.947 342.732, 54 345.623 M 145.500 349.202 C 141.334 350.651, 136.108 355.741, 133.900 360.500 C 131.816 364.991, 131.426 370.527, 133.120 371.574 C 133.736 371.955, 137.674 372.195, 141.870 372.108 C 147.416 371.993, 150.183 371.460, 152 370.157 C 156.201 367.145, 157.361 367.101, 166.952 369.592 C 177.432 372.315, 181.845 372.546, 187.263 370.659 C 194.190 368.247, 200.921 359.556, 200.978 352.950 C 201.012 348.997, 199.211 348, 192.032 348 C 186.674 348, 184.787 348.461, 181.785 350.500 C 179.762 351.875, 177.189 353, 176.068 353 C 174.947 353, 170.148 351.875, 165.403 350.500 C 156.298 347.861, 150.449 347.480, 145.500 349.202 M 392.135 351.748 C 391.560 352.822, 391.047 375.424, 390.866 407.660 C 390.619 451.777, 390.810 462.067, 391.904 463.384 C 393.085 464.808, 396.896 465, 423.922 465 C 446.449 465, 454.919 464.681, 455.800 463.800 C 456.582 463.018, 457 458.911, 457 452 C 457 445.089, 456.582 440.982, 455.800 440.200 C 454.971 439.371, 449.793 438.995, 439.050 438.985 C 430.498 438.976, 422.942 438.615, 422.261 438.182 C 421.313 437.580, 420.960 427.180, 420.761 393.948 L 420.500 350.500 406.800 350.222 C 394.454 349.972, 393.005 350.122, 392.135 351.748 M 260 381.409 C 248.774 383.456, 237.831 390.971, 231.519 400.970 C 225.078 411.173, 224.457 428.822, 230.106 441.080 C 242.641 468.274, 287.712 473.439, 309.692 450.201 C 311.618 448.166, 314.612 443.575, 316.347 440 C 319.299 433.913, 319.500 432.800, 319.500 422.500 C 319.500 412.636, 319.221 410.904, 316.797 405.732 C 312.948 397.518, 304.726 389.667, 295.516 385.412 C 283.677 379.942, 274.019 378.854, 260 381.409 M 145.979 382.781 C 139.646 385.189, 131.155 392.261, 126.881 398.687 C 116.186 414.769, 118.152 438.225, 131.335 451.829 C 138.745 459.476, 149.745 464.411, 158.995 464.240 C 165.308 464.124, 174.949 461.397, 177.491 459.009 C 180.249 456.418, 180.996 456.477, 183.462 459.485 C 185.408 461.858, 186.025 461.975, 197.173 462.091 C 203.593 462.158, 209.382 461.882, 210.036 461.478 C 211.594 460.515, 210.911 386.511, 209.329 384.929 C 208.759 384.359, 202.889 383.676, 196.284 383.411 C 184.320 382.932, 184.270 382.939, 182.624 385.450 L 180.973 387.971 174.806 384.735 C 169.328 381.862, 167.624 381.476, 159.569 381.281 C 152.981 381.122, 149.263 381.533, 145.979 382.781 M 641.792 384.540 C 633.759 386.180, 625.487 391.435, 622.484 396.808 C 617.961 404.900, 617.668 415.312, 621.765 422.347 C 624.140 426.423, 630.239 429.748, 639.664 432.103 C 650.025 434.693, 652.438 435.985, 652.805 439.141 C 653.218 442.692, 648.994 446, 644.047 446 C 639.740 446, 630.396 443.391, 627.541 441.391 C 623.361 438.463, 621.715 439.546, 617.204 448.192 L 612.930 456.385 615.215 458.543 C 616.472 459.731, 620.650 461.781, 624.500 463.101 C 630.484 465.152, 633.390 465.500, 644.523 465.500 C 657.246 465.500, 657.700 465.424, 664.276 462.186 C 668.986 459.866, 672.040 457.518, 674.450 454.361 C 679.100 448.272, 680.278 444.169, 679.844 435.574 C 679.537 429.508, 679.021 427.716, 676.705 424.679 C 672.974 419.789, 667.025 416.539, 658 414.460 C 653.875 413.510, 649.487 412.108, 648.250 411.344 C 645.334 409.543, 645.320 405.590, 648.223 403.557 C 651.173 401.490, 659.029 401.569, 663.520 403.711 C 666.127 404.954, 667.554 405.141, 668.740 404.392 C 670.760 403.118, 676.888 392.154, 676.953 389.699 C 677.021 387.079, 672.043 385.404, 660.500 384.162 C 649.257 382.953, 649.601 382.946, 641.792 384.540 M 481.556 384.748 C 476.087 384.929, 470.999 385.586, 470.251 386.207 C 469.147 387.123, 468.947 392.745, 469.195 415.918 L 469.500 444.500 472.201 449.620 C 479.308 463.092, 494.855 468.574, 518.500 465.944 C 531.180 464.534, 538.237 461.606, 544.072 455.338 C 551.806 447.027, 551.463 448.758, 551.830 416.130 C 552.012 399.977, 551.787 386.394, 551.330 385.947 C 550.874 385.499, 545.036 384.817, 538.358 384.431 C 526.740 383.760, 526.167 383.819, 525.109 385.796 C 524.368 387.182, 524.085 395.784, 524.251 411.874 L 524.500 435.884 521.054 439.442 C 517.788 442.814, 517.261 443, 510.991 443 C 505.001 443, 504.112 442.726, 501.607 440.112 C 497.614 435.943, 497.050 431.992, 497.024 407.950 C 496.999 385.895, 496.636 383.725, 493.050 384.209 C 492.197 384.324, 487.025 384.567, 481.556 384.748 M 572.200 387.200 C 570.720 388.680, 570.453 462.544, 571.924 463.453 C 573.583 464.478, 594.436 464.837, 596.241 463.871 C 597.871 462.999, 598 460.202, 598 425.665 C 598 398.014, 597.690 388.090, 596.800 387.200 C 595.150 385.550, 573.850 385.550, 572.200 387.200 M 265.500 406.412 C 261.636 408.129, 258.493 411.577, 256.548 416.232 C 254.468 421.210, 254.599 425.294, 256.991 429.982 C 263.455 442.654, 280.366 443.263, 288.191 431.106 C 290.738 427.149, 291.081 425.828, 290.623 421.730 C 289.921 415.456, 287.481 411.515, 282.079 407.932 C 277.124 404.647, 270.781 404.065, 265.500 406.412 M 158.500 407.573 C 146.837 413.638, 144.650 425.261, 153.367 434.845 C 158.333 440.305, 166.893 441.626, 173.956 438.023 C 179.538 435.175, 182.317 430.765, 182.808 423.976 C 183.314 416.976, 181.509 413.106, 175.814 408.980 C 172.524 406.597, 170.678 406.001, 166.600 406.006 C 163.795 406.010, 160.150 406.714, 158.500 407.573 M 234.878 492.637 C 233.986 493.661, 232.707 497.650, 232.035 501.500 C 231.363 505.350, 229.731 514, 228.407 520.721 C 225.559 535.180, 225.445 537.850, 227.636 538.691 C 230.212 539.679, 232.423 537.644, 233.384 533.402 C 235.854 522.496, 236.100 521.912, 238.648 520.944 C 242.683 519.410, 248.544 521.418, 249.773 524.757 C 250.329 526.265, 251.547 529.643, 252.479 532.261 C 254.169 537.009, 256.380 539.131, 258.750 538.282 C 260.773 537.556, 260.184 534.037, 256.531 525.028 L 253.095 516.555 256.445 513.487 C 261.057 509.262, 262.689 503.585, 260.677 498.768 C 258.656 493.933, 255.082 492.272, 244.929 491.453 C 237.446 490.849, 236.318 490.982, 234.878 492.637 M 348.224 492.750 C 347.125 493.712, 343.646 499.450, 340.492 505.500 C 337.339 511.550, 332.338 520.618, 329.380 525.651 C 323.869 535.025, 323.061 537.496, 325.250 538.282 C 327.443 539.068, 329.932 537.055, 332.131 532.717 C 333.307 530.397, 334.771 528.169, 335.384 527.765 C 335.998 527.361, 340.654 527.024, 345.731 527.015 L 354.962 527 355.568 529.750 C 356.964 536.079, 357.720 537.509, 359.833 537.820 C 361.138 538.012, 362.258 537.492, 362.631 536.520 C 363.206 535.021, 361.048 521.286, 358.917 512.884 C 358.413 510.895, 357.989 507.520, 357.976 505.384 C 357.906 493.948, 353.448 488.174, 348.224 492.750 M 450.500 491.790 C 441.960 493.244, 434.192 499.303, 430.358 507.500 C 427.621 513.353, 427.189 522.827, 429.418 528.128 C 432.266 534.900, 438.613 539, 446.249 539 C 451.741 539, 461.523 536.185, 463.456 534.048 C 464.310 533.105, 465.754 528.617, 466.665 524.075 C 468.636 514.248, 468.483 514.038, 459.372 514.015 C 454.987 514.004, 452.871 514.450, 451.930 515.584 C 450.057 517.841, 451.954 520.425, 455.766 520.807 C 459.498 521.181, 460.096 522.474, 458.627 526.991 C 457.615 530.104, 456.966 530.576, 452.281 531.614 C 442.626 533.754, 436.501 531.108, 434.697 524.018 C 433.907 520.912, 436.510 510.570, 439.171 506.241 C 443.808 498.697, 454.204 495.984, 462.705 500.099 C 467.974 502.650, 470.255 502.061, 469.817 498.263 C 469.601 496.386, 468.580 495.076, 466.599 494.131 C 463.483 492.643, 453.775 491.232, 450.500 491.790 M 34.356 494.510 C 19.201 502.062, 13.618 524.311, 24.483 533.851 C 27.948 536.893, 33.398 538.984, 37.892 538.994 C 39.208 538.997, 43.406 538.070, 47.221 536.934 C 53.390 535.097, 54.315 534.490, 55.589 531.440 C 56.377 529.555, 57.129 525.217, 57.261 521.801 L 57.500 515.589 52.530 514.735 C 46.735 513.738, 42.674 515.054, 43.187 517.761 C 43.405 518.910, 44.637 519.608, 46.816 519.818 C 50.659 520.188, 51.473 521.663, 50.550 526.583 C 49.754 530.830, 45.706 533, 38.579 533 C 32.457 533, 29.649 531.500, 27.023 526.827 C 25.202 523.587, 24.919 522.004, 25.480 518.180 C 26.971 507.998, 32.805 500.337, 40.917 497.907 C 44.990 496.686, 48.536 497.220, 55.795 500.145 C 58.615 501.281, 59.222 501.259, 60.005 499.992 C 61.402 497.731, 58.817 494.669, 54.379 493.327 C 47.574 491.269, 39.957 491.719, 34.356 494.510 M 138.708 503.250 C 135.138 509.438, 131.206 516.525, 129.970 519 C 128.733 521.475, 126.209 525.871, 124.361 528.769 C 120.288 535.155, 119.993 538, 123.405 538 C 125.220 538, 126.486 536.835, 128.568 533.250 C 130.086 530.638, 131.816 528.169, 132.413 527.765 C 134.260 526.516, 150.480 526.880, 151.800 528.200 C 152.460 528.860, 153 530.830, 153 532.578 C 153 536.133, 154.990 538.347, 157.702 537.808 C 160.117 537.327, 159.973 535.114, 156.160 514.026 C 154.422 504.416, 153 496.235, 153 495.848 C 153 494.303, 149.724 492, 147.528 492 C 145.612 492, 144.048 493.995, 138.708 503.250 M 544.871 493.250 C 544.040 493.938, 542.870 497.200, 542.271 500.500 C 541.672 503.800, 539.915 513.182, 538.366 521.349 C 534.874 539.755, 534.362 539.007, 550.441 538.985 C 562.207 538.968, 564.410 538.376, 563.838 535.380 C 563.526 533.743, 562.265 533.435, 554.094 533 C 542.657 532.391, 542.044 531.802, 544.402 523.689 L 546.056 518 555.278 517.985 C 565.543 517.968, 568.147 517.100, 566.396 514.278 C 565.530 512.882, 563.510 512.393, 557 512 C 546.999 511.397, 546.039 510.503, 547.976 503.586 C 548.695 501.019, 550.110 498.476, 551.122 497.935 C 552.134 497.393, 556.790 497.057, 561.468 497.188 C 570.646 497.445, 573.402 496.394, 571.035 493.542 C 569.365 491.530, 547.250 491.282, 544.871 493.250 M 641.636 494.250 C 640.261 496.444, 633 531.362, 633 535.780 C 633 537.467, 633.586 538, 635.441 538 C 636.784 538, 638.088 537.663, 638.341 537.250 C 638.593 536.837, 639.996 529.975, 641.459 522 C 644.533 505.244, 644.844 504, 645.968 504 C 646.848 504, 648.494 510.480, 649.524 518 C 650.632 526.096, 651.926 529, 654.423 529 C 657.418 529, 658.885 527.240, 665.203 516.064 C 673.114 502.069, 674.680 502.716, 671.008 518.464 C 669.913 523.162, 668.734 529.410, 668.389 532.350 C 667.845 536.976, 668.011 537.790, 669.622 538.408 C 671.768 539.232, 675 535.940, 675 532.930 C 675 531.913, 676.612 522.942, 678.583 512.993 C 682.595 492.742, 682.468 491.659, 676.162 492.199 C 673.030 492.468, 672.227 493.197, 668.679 499 C 666.494 502.575, 663.189 508.515, 661.337 512.201 C 659.484 515.886, 657.475 519.207, 656.872 519.579 C 655.479 520.440, 654.035 518.198, 654.015 515.143 C 653.983 510.111, 650.648 494.791, 649.289 493.432 C 647.122 491.265, 643.247 491.679, 641.636 494.250 M 240.215 499.250 C 239.648 499.938, 239.031 503.425, 238.842 507 L 238.500 513.500 241.888 513.824 C 247.161 514.327, 249.894 513.222, 252.027 509.723 C 256.058 503.112, 253.265 498, 245.622 498 C 243.215 498, 240.781 498.563, 240.215 499.250 M 142.398 508.201 C 140.948 511.062, 138.845 514.643, 137.724 516.159 C 134.803 520.110, 136.436 521.581, 143.543 521.405 C 146.665 521.327, 149.541 520.743, 149.934 520.106 C 150.551 519.108, 149.952 513.321, 148.396 505.250 C 147.671 501.489, 145.178 502.716, 142.398 508.201 M 347.683 504.798 C 346.757 505.821, 346 506.940, 346 507.285 C 346 507.630, 344.650 510.202, 343 513 C 339.744 518.522, 339.310 520.578, 341.250 521.297 C 342.930 521.920, 352.295 520.927, 353.302 520.019 C 354.349 519.075, 352.032 505.880, 350.527 504.219 C 349.593 503.188, 349.037 503.301, 347.683 504.798" stroke="none" fill="#004c87" fill-rule="evenodd"/>
</svg>